HIERARCHY
ROOT SpineBase
{
  OFFSET 0.000000 0.000000 0.000000
  CHANNELS 6 Xposition Yposition Zposition Zrotation Xrotation Yrotation
  JOINT SpineMid
  {
    OFFSET 0.000000 26.692895 0.000000
    CHANNELS 3 Zrotation Xrotation Yrotation
    JOINT SpineShoulder
    {
      OFFSET -0.041839 19.897936 -0.575210
      CHANNELS 3 Zrotation Xrotation Yrotation
      JOINT Neck
      {
        OFFSET -0.031451 6.608661 -0.454728
        CHANNELS 3 Zrotation Xrotation Yrotation
        JOINT Head
        {
          OFFSET -4.107554 10.938910 -0.704584
          CHANNELS 3 Zrotation Xrotation Yrotation
          End Site
          {
            OFFSET 0 0 0
          }
        }
      }
      JOINT ShoulderLeft
      {
        OFFSET -12.947356 -3.431771 5.231338
        CHANNELS 3 Zrotation Xrotation Yrotation
        JOINT ElbowLeft
        {
          OFFSET -0.737007 -19.551216 -22.040431
          CHANNELS 3 Zrotation Xrotation Yrotation
          JOINT WristLeft
          {
            OFFSET 17.198947 -5.302923 -11.763242
            CHANNELS 3 Zrotation Xrotation Yrotation
            JOINT HandLeft
            {
              OFFSET 5.747220 -1.825220 -3.589576
              CHANNELS 3 Zrotation Xrotation Yrotation
              JOINT HandTipLeft
              {
                OFFSET 0.512794 0.563573 -1.011667
                CHANNELS 3 Zrotation Xrotation Yrotation
                End Site
                {
                  OFFSET 0 0 0
                }
              }
              JOINT ThumbLeft
              {
                OFFSET -0.101315 1.066580 -2.628218
                CHANNELS 3 Zrotation Xrotation Yrotation
                End Site
                {
                  OFFSET 0 0 0
                }
              }
            }
          }
        }
      }
      JOINT ShoulderRight
      {
        OFFSET 10.116981 -2.381249 -7.831886
        CHANNELS 3 Zrotation Xrotation Yrotation
        JOINT ElbowRight
        {
          OFFSET 6.884812 -19.719155 -2.520844
          CHANNELS 3 Zrotation Xrotation Yrotation
          JOINT WristRight
          {
            OFFSET -14.821444 -6.472498 -14.471758
            CHANNELS 3 Zrotation Xrotation Yrotation
            JOINT HandRight
            {
              OFFSET -6.023171 2.230244 -1.088814
              CHANNELS 3 Zrotation Xrotation Yrotation
              JOINT HandTipRight
              {
                OFFSET -3.220036 -0.811573 -0.197648
                CHANNELS 3 Zrotation Xrotation Yrotation
                End Site
                {
                  OFFSET 0 0 0
                }
              }
              JOINT ThumbRight
              {
                OFFSET 0.928775 1.125745 -3.311530
                CHANNELS 3 Zrotation Xrotation Yrotation
                End Site
                {
                  OFFSET 0 0 0
                }
              }
            }
          }
        }
      }
    }
  }
  JOINT HipLeft
  {
    OFFSET -5.636684 0.058677 -0.822894
    CHANNELS 3 Zrotation Xrotation Yrotation
    JOINT KneeLeft
    {
      OFFSET 4.372734 -32.335016 3.639467
      CHANNELS 3 Zrotation Xrotation Yrotation
      JOINT AnkleLeft
      {
        OFFSET 6.489307 -33.585947 5.972594
        CHANNELS 3 Zrotation Xrotation Yrotation
        JOINT FootLeft
        {
          OFFSET 0.808864 -6.941972 -2.125353
          CHANNELS 3 Zrotation Xrotation Yrotation
          End Site
          {
            OFFSET 0 0 0
          }
        }
      }
    }
  }
  JOINT HipRight
  {
    OFFSET 5.207471 1.317288 -5.159187
    CHANNELS 3 Zrotation Xrotation Yrotation
    JOINT KneeRight
    {
      OFFSET 6.144744 -32.696444 0.785402
      CHANNELS 3 Zrotation Xrotation Yrotation
      JOINT AnkleRight
      {
        OFFSET 2.749722 -33.338356 6.975562
        CHANNELS 3 Zrotation Xrotation Yrotation
        JOINT FootRight
        {
          OFFSET -3.955205 -4.685268 -5.915633
          CHANNELS 3 Zrotation Xrotation Yrotation
          End Site
          {
            OFFSET 0 0 0
          }
        }
      }
    }
  }
}
MOTION
Frames: 12
Frame Time: 0.033333
27.956171 73.505217 373.562424 -0.000000 0.000000 21.795177 -0.000000 0.000000 -21.795177 -0.000000 0.000000 0.000000 -0.000000 0.000000 0.000000 0.000000 0.000000 0.000000 -0.000000 0.000000 0.000000 -0.000000 0.000000 0.000000 -0.000000 0.000000 0.000000 -0.000000 0.000000 0.000000 0.000000 0.000000 0.000000 0.000000 0.000000 0.000000 -0.000000 0.000000 0.000000 -0.000000 0.000000 0.000000 -0.000000 0.000000 0.000000 -0.000000 0.000000 0.000000 0.000000 0.000000 0.000000 0.000000 0.000000 0.000000 -0.000000 0.000000 -21.795177 -0.000000 0.000000 0.000000 -0.000000 0.000000 0.000000 0.000000 0.000000 0.000000 -0.000000 0.000000 -21.795177 -0.000000 0.000000 0.000000 -0.000000 0.000000 0.000000 0.000000 0.000000 0.000000
27.979708 73.522083 373.550570 0.015520 0.011158 21.815127 -0.018555 -0.004592 -21.815130 -0.000000 0.000000 0.000000 -0.000000 0.000000 0.000000 0.000000 0.000000 0.000000 -0.000000 0.000000 0.000000 -0.000000 0.000000 0.000000 -0.000000 0.000000 0.000000 -0.000000 0.000000 0.000000 0.000000 0.000000 0.000000 0.000000 0.000000 0.000000 -0.000000 0.000000 0.000000 0.475516 -0.613969 0.352871 -0.415543 1.055338 0.863306 -0.731361 -1.084613 1.502939 0.000000 0.000000 0.000000 0.000000 0.000000 0.000000 -0.018555 -0.004592 -21.815130 -0.000000 0.000000 0.000000 -5.188484 13.398014 3.654292 0.000000 0.000000 0.000000 -0.018555 -0.004592 -21.815130 -0.000000 0.000000 0.000000 0.735512 -1.859066 0.670135 0.000000 0.000000 0.000000
28.001049 73.535483 373.538129 0.030485 0.016295 21.829909 -0.034359 -0.003791 -21.829914 -0.000000 0.000000 0.000000 -0.000000 0.000000 0.000000 0.000000 0.000000 0.000000 -0.000000 0.000000 0.000000 -0.000000 0.000000 0.000000 -0.000000 0.000000 0.000000 -0.000000 0.000000 0.000000 0.000000 0.000000 0.000000 0.000000 0.000000 0.000000 0.656444 0.786523 0.185654 0.161116 -1.859638 0.463278 -0.526173 1.898683 1.703492 -1.817742 -1.983992 2.638646 0.000000 0.000000 0.000000 0.000000 0.000000 0.000000 -0.034359 -0.003791 -21.829914 -0.000000 0.000000 0.000000 -9.411433 23.105855 7.156362 0.000000 0.000000 0.000000 -0.034359 -0.003791 -21.829914 -0.000000 0.000000 0.000000 1.124549 -2.636862 0.864627 0.000000 0.000000 0.000000
28.020193 73.545417 373.525102 0.044892 0.015409 21.839496 -0.047403 0.002397 -21.839501 -0.000000 0.000000 0.000000 -0.000000 0.000000 0.000000 0.000000 0.000000 0.000000 -0.000000 0.000000 0.000000 -0.000000 0.000000 0.000000 -0.000000 0.000000 0.000000 -0.000000 0.000000 0.000000 0.000000 0.000000 0.000000 0.000000 0.000000 0.000000 0.891931 1.033667 0.237916 0.139765 -2.411083 0.642885 -0.337279 2.543165 2.545753 -3.232780 -2.694222 3.355680 0.000000 0.000000 0.000000 0.000000 0.000000 0.000000 -0.047403 0.002397 -21.839501 -0.000000 0.000000 0.000000 -12.170405 29.429749 9.765761 0.000000 0.000000 0.000000 -0.047403 0.002397 -21.839501 -0.000000 0.000000 0.000000 1.111804 -2.242140 0.528333 0.000000 0.000000 0.000000
28.037140 73.551885 373.511488 0.058737 0.008499 21.843875 -0.057682 0.013966 -21.843872 -0.000000 0.000000 0.000000 -0.000000 0.000000 0.000000 0.000000 0.000000 0.000000 0.499586 -0.352640 -0.550361 -0.502960 0.347811 0.553425 -0.000000 0.000000 0.000000 -0.000000 0.000000 0.000000 0.000000 0.000000 0.000000 0.000000 0.000000 0.000000 1.066198 1.183264 0.264620 0.049415 -2.711046 0.781836 0.153997 3.000470 3.414820 -4.955768 -3.209489 3.631144 0.000000 0.000000 0.000000 0.000000 0.000000 0.000000 -0.057682 0.013966 -21.843872 -0.000000 0.000000 0.000000 -13.246248 33.186061 11.115651 0.000000 0.000000 0.000000 -0.057682 0.013966 -21.843872 -0.000000 0.000000 0.000000 0.713120 -0.691299 -0.316584 0.000000 0.000000 0.000000
28.051892 73.554888 373.497289 0.072015 -0.004430 21.843041 -0.065197 0.030907 -21.843020 -0.000000 0.000000 0.000000 -0.000000 0.000000 0.000000 0.000000 0.000000 0.000000 0.553641 -0.560380 -0.603735 -0.559541 0.554489 0.609150 -0.000000 0.000000 0.000000 -0.000000 0.000000 0.000000 0.000000 0.000000 0.000000 0.000000 0.000000 0.000000 1.179501 1.235273 0.266473 -0.110525 -2.760089 0.878358 0.958554 3.282186 4.336888 -6.971752 -3.521890 3.463095 0.000000 0.000000 0.000000 0.000000 0.000000 0.000000 -0.065197 0.030907 -21.843020 -0.000000 0.000000 0.000000 -12.586173 34.971560 11.091273 0.000000 0.000000 0.000000 -0.065197 0.030907 -21.843020 -0.000000 0.000000 0.000000 0.010751 1.887146 -1.574270 0.000000 0.000000 0.000000
28.056656 73.555211 373.500158 0.068292 -0.025452 21.984036 -0.053799 0.049166 -21.983998 -0.000000 0.000000 0.000000 0.800856 0.154836 0.108369 0.000000 0.000000 0.000000 0.700774 -0.789886 -0.761479 -1.003113 0.908168 1.851925 -0.018522 0.020574 0.015797 0.306011 -0.157735 -1.091813 0.000000 0.000000 0.000000 0.000000 0.000000 0.000000 1.206566 1.076660 0.209312 -0.407621 -2.467035 1.235992 3.202216 3.469581 5.545832 -8.378880 -4.123678 3.881219 0.000000 0.000000 0.000000 0.000000 0.000000 0.000000 -0.053799 0.049166 -21.983998 -0.000000 0.000000 0.000000 -6.403258 37.044988 7.818953 0.000000 0.000000 0.000000 -0.053799 0.049166 -21.983998 -0.000000 0.000000 0.000000 0.042971 0.651481 -0.600348 0.000000 0.000000 0.000000
28.066773 73.543570 373.490246 0.076001 -0.054198 21.963681 -0.050214 0.078690 -21.963610 -0.000000 0.000000 0.000000 0.921739 0.229664 0.143348 0.000000 0.000000 0.000000 0.709139 -1.096718 -0.759667 -1.011786 1.298955 2.116436 -0.019691 0.023909 0.022156 0.299567 -0.246319 -1.358606 0.000000 0.000000 0.000000 0.000000 0.000000 0.000000 1.150188 0.882156 0.151428 -0.495471 -2.256429 1.591223 4.837287 3.744361 6.468306 -14.711479 -3.849898 3.354816 0.000000 0.000000 0.000000 0.000000 0.000000 0.000000 -0.050214 0.078690 -21.963610 -0.000000 0.000000 0.000000 -2.916919 28.895169 4.723491 0.000000 0.000000 0.000000 -0.050214 0.078690 -21.963610 -0.000000 0.000000 0.000000 -1.567558 6.537652 -3.188443 0.000000 0.000000 0.000000
28.078048 73.536000 373.472649 0.092964 -0.088069 21.845461 -0.053517 0.116337 -21.845335 -0.000000 0.000000 0.000000 1.035044 0.252728 0.158770 0.000000 0.000000 0.000000 0.678099 -1.511913 -0.709196 -1.406609 1.369519 1.945108 -0.237523 0.850325 3.034656 -0.272340 1.196174 -8.398614 0.000000 0.000000 0.000000 0.000000 0.000000 0.000000 1.079403 0.655215 0.084264 -0.716653 -1.715653 1.571167 5.847318 3.730778 7.497880 -16.282242 -3.100118 0.579242 0.000000 0.000000 0.000000 0.000000 0.000000 0.000000 -0.053517 0.116337 -21.845335 -0.000000 0.000000 0.000000 4.879869 22.642596 0.188185 0.000000 0.000000 0.000000 -0.053517 0.116337 -21.845335 -0.000000 0.000000 0.000000 -3.034791 13.482224 -6.175964 0.000000 0.000000 0.000000
28.087856 73.529463 373.438616 0.119579 -0.112367 21.649744 -0.069688 0.148557 -21.649537 -0.000000 0.000000 0.000000 1.108253 0.228799 0.154545 0.000000 0.000000 0.000000 0.581885 -2.023808 -0.581076 -0.890892 2.227918 1.943285 -0.367514 0.104225 0.960035 0.642672 -0.334872 -2.288916 0.000000 0.000000 0.000000 0.000000 0.000000 0.000000 1.322108 0.321438 -0.060238 -1.321790 -0.322743 0.052807 6.616113 2.925694 9.567783 -19.566322 -0.535359 -5.281119 0.000000 0.000000 0.000000 0.000000 0.000000 0.000000 -0.069688 0.148557 -21.649537 -0.000000 0.000000 0.000000 8.335911 18.825943 -1.630770 0.000000 0.000000 0.000000 -0.069688 0.148557 -21.649537 -0.000000 0.000000 0.000000 -4.060094 20.163222 -9.028273 0.000000 0.000000 0.000000
28.098843 73.518752 373.418011 0.143220 -0.141388 21.529013 -0.081343 0.184081 -21.528706 -0.000000 0.000000 0.000000 1.207937 0.152672 0.133011 0.000000 0.000000 0.000000 0.397258 -2.577425 -0.350663 -0.283536 3.141194 1.878214 3.781764 1.319075 -2.752451 -2.168433 -1.850432 4.081774 0.000000 0.000000 0.000000 0.000000 0.000000 0.000000 1.378947 0.276709 -0.082635 -1.867660 0.677209 -0.991507 7.271458 1.971685 10.463433 -20.345345 1.553832 -9.864674 0.000000 0.000000 0.000000 0.000000 0.000000 0.000000 -0.081343 0.184081 -21.528706 -0.000000 0.000000 0.000000 12.600962 20.958732 -3.499691 0.000000 0.000000 0.000000 -0.716526 0.723709 -21.492040 0.788722 -0.269351 -0.029780 -3.450449 20.319109 -9.849291 0.000000 0.000000 0.000000
28.102432 73.510697 373.395658 0.151090 -0.163050 21.412031 -0.081137 0.206955 -21.411670 -0.000000 0.000000 0.000000 1.346938 0.052989 0.105573 0.000000 0.000000 0.000000 0.331558 -3.315476 -0.247254 2.391381 6.116616 2.688351 4.216458 -0.792246 -8.067462 -3.825792 -5.788728 13.007553 0.000000 0.000000 0.000000 0.000000 0.000000 0.000000 1.095495 0.135128 -0.093835 -2.536312 2.829223 -3.177842 5.175812 0.186580 12.266083 -18.380641 3.147366 -14.518050 0.000000 0.000000 0.000000 0.000000 0.000000 0.000000 -0.081137 0.206955 -21.411670 -0.000000 0.000000 0.000000 3.262172 21.541815 0.866859 0.000000 0.000000 0.000000 -0.798125 0.747192 -21.381095 1.879626 0.449263 0.244871 -4.234828 19.465025 -10.219712 0.000000 0.000000 0.000000
